<svg xmlns="http://www.w3.org/2000/svg" xmlns:xlink="http://www.w3.org/1999/xlink" width="74" height="21" viewBox="0 0 74 21">
  <defs>
    <clipPath id="clip-Coin_logo_Sept_2021">
      <rect width="74" height="21"/>
    </clipPath>
  </defs>
  <g id="Coin_logo_Sept_2021" data-name="Coin logo Sept 2021" clip-path="url(#clip-Coin_logo_Sept_2021)">
    <g id="Group_2063" data-name="Group 2063" transform="translate(17761 15423)">
      <g id="Group_1976" data-name="Group 1976" transform="translate(-1 21.107)">
        <ellipse id="Ellipse_437" data-name="Ellipse 437" cx="7.07" cy="6.776" rx="7.07" ry="6.776" transform="translate(-17734.873 -15440.567)" fill="#ffe98a"/>
        <path id="Path_1216" data-name="Path 1216" d="M723.7,2428.334l3.422-4.034a6.977,6.977,0,0,1,3,6.888l-3.481,2.084Z" transform="translate(-18451.199 -17864.002)" fill="#ffd833"/>
        <path id="Path_1217" data-name="Path 1217" d="M640.947,2452.656l-3.855-5.357-5.192,5.812a5.583,5.583,0,0,0,1.233,2.4c.433.553,7.284-2.331,7.284-2.331Z" transform="translate(-18366.258 -17885.281)" fill="#f8cb46"/>
        <path id="Path_1218" data-name="Path 1218" d="M638.8,2516.469l1.927-2.07,2.047,2.226-1.89,2.256A6.836,6.836,0,0,1,638.8,2516.469Z" transform="translate(-18372.643 -17947.369)" fill="#64d6f9"/>
        <path id="Path_1219" data-name="Path 1219" d="M731.8,2477.383l3.048-3.683,2.764,3.2a6.45,6.45,0,0,1-2.764,4.325Z" transform="translate(-18458.695 -17909.711)" fill="#4fccfc"/>
        <path id="Path_1220" data-name="Path 1220" d="M661.5,2507.688l4.348-5.087,3.959,5.364A6.759,6.759,0,0,1,661.5,2507.688Z" transform="translate(-18393.646 -17936.451)" fill="#4aace9"/>
        <path id="Path_1221" data-name="Path 1221" d="M632.521,2443.785l-1.89-2.585a6.743,6.743,0,0,0-1.4,6.268Z" transform="translate(-18363.584 -17879.639)" fill="#fcdc59"/>
      </g>
      <g id="Group_1977" data-name="Group 1977" transform="translate(-17760 -15422.5)">
        <path id="path981" d="M16.423,9.824a.99.99,0,0,0-.981.85A6.081,6.081,0,1,1,9.418,3.809a6.1,6.1,0,0,1,3.348.994,1,1,0,0,0,1.3-.159l.881-.979a1.006,1.006,0,0,0-.176-1.5A9.438,9.438,0,0,0,0,9.824a9.364,9.364,0,0,0,9.418,9.308,9.382,9.382,0,0,0,9.349-8.183,1.008,1.008,0,0,0-1-1.125Z" fill="#222" fill-rule="evenodd"/>
        <path id="path979" d="M69.39,4.108l-.038-.048A9.223,9.223,0,0,0,62.4.561h-.882a9.559,9.559,0,0,0-4.72,1.5l-.082.054c-2.72,2.12-4.1,4.578-4.1,7.307v8.67a1,1,0,0,0,1,1h1.508a1,1,0,0,0,1-1v-7.8a7.57,7.57,0,0,1,.357-2.516c1.213-2.52,2.995-3.745,5.448-3.745a5.327,5.327,0,0,1,3.483,1.118l.062.045c1.6,1.031,2.377,2.794,2.377,5.388v7.507a1,1,0,0,0,1,1h1.508a1,1,0,0,0,1-1V9.416a8.868,8.868,0,0,0-1.965-5.308" fill="#222" fill-rule="evenodd"/>
        <path id="path955" d="M44.625,1.5v16.59a1,1,0,0,0,1,1h1.645a1,1,0,0,0,1-1V1.5a1,1,0,0,0-1-1H45.623A1,1,0,0,0,44.625,1.5Z" fill="#222" fill-rule="evenodd"/>
        <path id="path957" d="M31.006,15.838a6.015,6.015,0,1,1,6.085-6.014,6.051,6.051,0,0,1-6.085,6.014m0-15.322a9.363,9.363,0,0,0-9.418,9.308,9.418,9.418,0,0,0,18.835,0A9.363,9.363,0,0,0,31.006.516" fill="#222" fill-rule="evenodd"/>
      </g>
    </g>
  </g>
</svg>
