<?xml version="1.0" encoding="utf-8"?>
<!-- Generator: Adobe Illustrator 25.4.1, SVG Export Plug-In . SVG Version: 6.00 Build 0)  -->
<svg version="1.1" id="Layer_1" xmlns="http://www.w3.org/2000/svg" xmlns:xlink="http://www.w3.org/1999/xlink" x="0px" y="0px"
	 viewBox="0 0 111 64" style="enable-background:new 0 0 111 64;" xml:space="preserve">
<style type="text/css">
	.st0{fill:#C1DBFF;}
	.st1{fill:#82B6FD;}
	.st2{fill:#5273A0;}
</style>
<g>
	<g id="SGB_prod_page_2">
		<g id="Group_2117">
			<g id="Group_1950" transform="translate(-790.164 -1173.611)">
				<path id="Rectangle_337" class="st0" d="M833,1189.2h35c2.8,0,5,2.2,5,5v22c0,2.8-2.2,5-5,5h-35c-2.8,0-5-2.2-5-5v-22
					C828,1191.5,830.2,1189.2,833,1189.2z"/>
				<path id="Rectangle_340" class="st1" d="M833,1189.2h35c2.8,0,5,2.2,5,5v3c0,2.8-2.2,5-5,5h-35c-2.8,0-5-2.2-5-5v-3
					C828,1191.5,830.2,1189.2,833,1189.2z"/>
				<g id="Group_1943" transform="translate(824.904 1183.75)">
					<g id="Group_1941" transform="translate(0 3)">
						<path id="Path_1185" class="st2" d="M44,37.7H6.3c-3.4,0.1-6.2-2.7-6.3-6.1c0-0.1,0-0.2,0-0.2V6.3C-0.1,2.9,2.7,0.1,6.1,0
							c0.1,0,0.2,0,0.2,0H44c3.4-0.1,6.2,2.6,6.3,6.1c0,0.1,0,0.2,0,0.2v25.1c0.1,3.4-2.7,6.2-6.1,6.3C44.2,37.7,44.1,37.7,44,37.7z
							 M6.3,4.2C5.2,4.1,4.3,5,4.2,6c0,0.1,0,0.2,0,0.2v25.1c-0.1,1.1,0.8,2,1.9,2.1c0.1,0,0.2,0,0.2,0H44c1.1,0.1,2-0.8,2.1-1.9
							c0-0.1,0-0.2,0-0.2V6.3c0.1-1.1-0.8-2-1.9-2.1c-0.1,0-0.2,0-0.2,0L6.3,4.2z"/>
					</g>
					<g id="Group_1942" transform="translate(0 15.574)">
						<path id="Path_1186" class="st2" d="M48.2,4.2H2.1C1,4.3,0.1,3.4,0,2.3c0-0.1,0-0.2,0-0.2C-0.1,1,0.8,0.1,1.9,0
							C1.9,0,2,0,2.1,0h46.1c1.1-0.1,2,0.8,2.1,1.9c0,0.1,0,0.2,0,0.2c0.1,1.1-0.8,2-1.9,2.1C48.4,4.2,48.3,4.2,48.2,4.2z"/>
					</g>
				</g>
			</g>
			<path id="Path_1378" class="st2" d="M25.3,31.4H7.7c-1.1,0-2-0.9-2-2s0.9-2,2-2h17.5c1.1,0,2,0.9,2,2S26.4,31.4,25.3,31.4z"/>
			<path id="Path_1379" class="st2" d="M102.3,35.4h-8.8c-1.1,0-2-0.9-2-2s0.9-2,2-2h8.8c1.1,0,2,0.9,2,2S103.4,35.4,102.3,35.4z"/>
			<path id="Path_1382" class="st2" d="M25.3,42.4h-8.8c-1.1,0-2-0.9-2-2s0.9-2,2-2h8.8c1.1,0,2,0.9,2,2S26.4,42.4,25.3,42.4z"/>
		</g>
	</g>
</g>
</svg>
