<?xml version="1.0" encoding="utf-8"?>
<!-- Generator: Adobe Illustrator 25.4.1, SVG Export Plug-In . SVG Version: 6.00 Build 0)  -->
<svg version="1.1" id="Layer_1" xmlns="http://www.w3.org/2000/svg" xmlns:xlink="http://www.w3.org/1999/xlink" x="0px" y="0px"
	 viewBox="0 0 111 64" style="enable-background:new 0 0 111 64;" xml:space="preserve">
<style type="text/css">
	.st0{fill:#D5EBDD;}
	.st1{fill:#B8DEC6;}
	.st2{fill:#597664;}
	.st3{fill:#73CC94;}
</style>
<g>
	<g id="SGB_prod_page_1_">
		<g id="Group_2116">
			<g id="Group_1949" transform="translate(32.922 6.241)">
				<path id="Rectangle_338" class="st0" d="M7.3,2.9h25.2c2.8,0,5,2.2,5,5v32.6c0,2.8-2.2,5-5,5H7.3c-2.8,0-5-2.2-5-5V7.9
					C2.3,5.1,4.5,2.9,7.3,2.9z"/>
				<path id="Rectangle_339" class="st1" d="M7.3,2.9h11.7l0,0v42.6l0,0H7.3c-2.8,0-5-2.2-5-5V7.9C2.3,5.1,4.5,2.9,7.3,2.9z"/>
				<g id="Group_1944">
					<path id="Path_1187" class="st2" d="M33.1,48.5H6.6c-3.7,0-6.6-3-6.6-6.6V6.6C0,3,3,0,6.6,0h26.5c3.7,0,6.6,3,6.6,6.6v35.3
						C39.7,45.6,36.7,48.5,33.1,48.5z M6.6,4.4c-1.2,0-2.2,1-2.2,2.2v35.3c0,1.2,1,2.2,2.2,2.2h0h26.5c1.2,0,2.2-1,2.2-2.2
						c0,0,0,0,0,0V6.6c0-1.2-1-2.2-2.2-2.2L6.6,4.4z"/>
				</g>
				<g id="Group_1946" transform="translate(4.478 45.524)">
					<path id="Path_1189" class="st2" d="M3,6C2.2,6,1.5,5.7,0.9,5.1C0.7,5,0.6,4.8,0.5,4.7C0.4,4.5,0.3,4.3,0.2,4.1
						C0.2,4,0.1,3.8,0.1,3.6C0,3.4,0,3.2,0,3c0-0.4,0.1-0.8,0.2-1.1c0.2-0.4,0.4-0.7,0.6-1c1.2-1.1,3.1-1.1,4.3,0
						c0.3,0.3,0.5,0.6,0.6,1C5.9,2.2,6,2.6,6,3C6,3.2,6,3.4,6,3.6c0,0.2-0.1,0.4-0.2,0.5C5.7,4.3,5.6,4.5,5.5,4.7L5.2,5.1
						C4.6,5.7,3.8,6,3,6z"/>
				</g>
				<g id="Group_1947" transform="translate(29.849 45.524)">
					<path id="Path_1189-2" class="st2" d="M3,6C2.2,6,1.5,5.7,0.9,5.1C0.7,5,0.6,4.8,0.5,4.7C0.4,4.5,0.3,4.3,0.2,4.1
						C0.2,4,0.1,3.8,0.1,3.6C0,3.4,0,3.2,0,3c0-0.4,0.1-0.8,0.2-1.1c0.2-0.4,0.4-0.7,0.6-1c1.2-1.1,3.1-1.1,4.3,0
						c0.3,0.3,0.5,0.6,0.6,1C5.9,2.2,6,2.6,6,3C6,3.2,6,3.4,6,3.6c0,0.2-0.1,0.4-0.2,0.5C5.7,4.3,5.6,4.5,5.5,4.7L5.2,5.1
						C4.6,5.7,3.8,6,3,6z"/>
				</g>
				<circle id="Ellipse_434" class="st3" cx="26.8" cy="23.7" r="5.1"/>
				<g id="Group_1945" transform="translate(20.776 17.911)">
					<path id="Path_1188" class="st2" d="M6,12c-3.3,0-6-2.7-6-6s2.7-6,6-6s6,2.7,6,6S9.3,12,6,12z M6,2.4C4,2.4,2.4,4,2.4,6
						S4,9.6,6,9.6S9.6,8,9.6,6S8,2.4,6,2.4L6,2.4z"/>
				</g>
				<path id="Path_1190" class="st2" d="M26.8,37.8c-1,0-1.9-0.8-1.9-1.9v-6c0-1,0.8-1.9,1.9-1.9s1.9,0.8,1.9,1.9v0v6
					C28.6,37,27.8,37.8,26.8,37.8L26.8,37.8z"/>
			</g>
			<path id="Path_1377" class="st2" d="M80.8,23c0-1.1,0.9-2,2-2h20.4c1.1,0,2,0.9,2,2s-0.9,2-2,2H82.8C81.7,25,80.8,24.1,80.8,23z"
				/>
			<path id="Path_1380" class="st2" d="M8.8,45c0-1.1,0.9-2,2-2h11.4c1.1,0,2,0.9,2,2s-0.9,2-2,2H10.8C9.7,47,8.8,46.1,8.8,45z"/>
			<path id="Path_1381" class="st2" d="M80.8,35c0-1.1,0.9-2,2-2h7.4c1.1,0,2,0.9,2,2s-0.9,2-2,2h-7.4C81.7,37,80.8,36.1,80.8,35z"
				/>
		</g>
	</g>
</g>
</svg>
