<?xml version="1.0" encoding="utf-8"?>
<!-- Generator: Adobe Illustrator 25.4.1, SVG Export Plug-In . SVG Version: 6.00 Build 0)  -->
<svg version="1.1" id="Layer_1" xmlns="http://www.w3.org/2000/svg" xmlns:xlink="http://www.w3.org/1999/xlink" x="0px" y="0px"
	 viewBox="0 0 111 64" style="enable-background:new 0 0 111 64;" xml:space="preserve">
<style type="text/css">
	.st0{fill:#FFE4BF;}
	.st1{fill:#FCD39B;}
	.st2{fill:#FFAC39;}
</style>
<g>
	<g id="SGB_prod_page_3">
		<g id="Group_2118">
			<g id="Group_2115" transform="translate(-15.531 -2)">
				<path id="Path_1184" class="st0" d="M71,9l7.5,15l16.7,2.4L83.2,38.3L86.1,55l-15-8l-15,8l2.9-16.7L46.8,26.4L63.5,24L71,9z"/>
				<path id="Path_1190" class="st1" d="M71,47.2L55.9,55l2.6-16.3l-11.3-12l16.4-2.6L71,9.4L71,47.2z"/>
				<g id="Group_1940" transform="translate(44.273 6.626)">
					<path id="Path_1182" class="st2" d="M41.8,50.7c-0.4,0-0.8,0-1.2-0.2l-13.8-7.3l-13.8,7.3c-0.9,0.4-1.9,0.3-2.7-0.2
						c-0.8-0.5-1.2-1.5-1-2.4L12,32.3L0.8,21.6c-0.7-0.6-1-1.5-0.7-2.4c0.2-0.9,1-1.6,1.9-1.7l15.5-2.2l7-14.1
						c0.7-1.2,2.2-1.6,3.4-0.9c0.4,0.2,0.7,0.6,0.9,0.9l7,14.1l15.5,2.2c0.9,0.1,1.7,0.8,1.9,1.7c0.3,0.9,0,1.9-0.7,2.4L41.5,32.5
						l2.7,15.5c0.2,0.9-0.2,1.9-1,2.4C42.8,50.7,42.3,50.8,41.8,50.7z M26.8,38.1c0.4,0,0.8,0,1.2,0.2l10.7,5.6l-1.9-11.9
						c-0.1-0.8,0.1-1.6,0.7-2.2l8.5-8.5L34,19.7c-0.7,0-1.5-0.7-1.9-1.2L26.8,7.8l-5.3,10.7c-0.3,0.8-1.1,1.3-1.9,1.2L7.8,21.6
						l8.5,8.5c0.5,0.6,0.7,1.4,0.7,2.2l-1.9,11.6l10.7-5.6C26.1,38.2,26.4,38.1,26.8,38.1z"/>
				</g>
			</g>
			<path id="Path_1383" class="st2" d="M28.7,45.4H7.2c-1.1,0-2-0.9-2-2s0.9-2,2-2h21.5c1.1,0,2,0.9,2,2S29.8,45.4,28.7,45.4z"/>
			<path id="Path_1385" class="st2" d="M103.3,47.4H82.4c-1.1,0-2-0.9-2-2s0.9-2,2-2h20.8c1.1,0,2,0.9,2,2S104.4,47.4,103.3,47.4z"
				/>
			<path id="Path_1384" class="st2" d="M99.3,37h-8.8c-1.1,0-2-0.9-2-2s0.9-2,2-2h8.8c1.1,0,2,0.9,2,2S100.4,37,99.3,37z"/>
		</g>
	</g>
</g>
</svg>
