<?xml version="1.0" encoding="utf-8"?>
<!-- Generator: Adobe Illustrator 25.4.1, SVG Export Plug-In . SVG Version: 6.00 Build 0)  -->
<svg version="1.1" id="Layer_1" xmlns="http://www.w3.org/2000/svg" xmlns:xlink="http://www.w3.org/1999/xlink" x="0px" y="0px"
	 viewBox="0 0 111 64" style="enable-background:new 0 0 111 64;" xml:space="preserve">
<style type="text/css">
	.st0{fill:#1196E2;}
	.st1{fill:#D1EEFF;}
</style>
<g>
	<g id="Govt_Bonds_prod_page_2">
		<g id="Group_2113" transform="translate(0 -0.394)">
			<g id="Group_2111" transform="translate(29.246 12.394)">
				<path id="Path_1290" class="st0" d="M6.9,38.4c-0.6,0.1-1.1,0-1.6-0.3c-1-0.7-1.3-2-0.6-3c0,0,0-0.1,0.1-0.1L26.2,3.2
					c0.7-1,2.1-1.3,3.1-0.6c1,0.7,1.3,2.1,0.6,3.1L8.3,37.4C8,37.9,7.5,38.3,6.9,38.4z"/>
				<ellipse id="Ellipse_164" class="st1" cx="27.4" cy="33" rx="3.2" ry="3.2"/>
				<path id="Ellipse_164_-_Outline" class="st0" d="M27.4,29.7c-1.8,0-3.2,1.4-3.2,3.2s1.4,3.2,3.2,3.2s3.2-1.4,3.2-3.2l0,0
					C30.6,31.2,29.2,29.8,27.4,29.7L27.4,29.7 M27.4,25.3c4.2,0,7.6,3.4,7.6,7.6s-3.4,7.6-7.6,7.6s-7.6-3.4-7.6-7.6l0,0
					c0-4.2,3.3-7.6,7.5-7.6C27.3,25.3,27.4,25.3,27.4,25.3z"/>
				<ellipse id="Ellipse_163" class="st1" cx="7.6" cy="7.6" rx="3.2" ry="3.2"/>
				<path id="Ellipse_163_-_Outline" class="st0" d="M7.6,4.4c-1.8,0-3.2,1.4-3.2,3.2s1.4,3.2,3.2,3.2s3.2-1.4,3.2-3.2l0,0
					C10.8,5.8,9.4,4.4,7.6,4.4L7.6,4.4 M7.6,0c4.2,0,7.6,3.4,7.6,7.6s-3.4,7.6-7.6,7.6S0,11.8,0,7.6C0,3.4,3.3,0,7.5,0
					C7.5,0,7.6,0,7.6,0z"/>
			</g>
			<path id="Path_1371" class="st0" d="M18.3,44.2H9.4c-1.1,0-2-0.9-2-2s0.9-2,2-2h8.9c1.1,0,2,0.9,2,2S19.4,44.2,18.3,44.2z"/>
			<path id="Path_1372" class="st0" d="M103.4,44.2H77.7c-1.1,0-2-0.9-2-2s0.9-2,2-2h25.7c1.1,0,2,0.9,2,2S104.5,44.2,103.4,44.2z"
				/>
			<path id="Path_1373" class="st0" d="M87.6,30.7h-9.9c-1.1,0-2-0.9-2-2s0.9-2,2-2h9.9c1.1,0,2,0.9,2,2S88.7,30.7,87.6,30.7z"/>
		</g>
	</g>
</g>
</svg>
