<?xml version="1.0" encoding="utf-8"?>
<!-- Generator: Adobe Illustrator 25.4.1, SVG Export Plug-In . SVG Version: 6.00 Build 0)  -->
<svg version="1.1" id="Layer_1" xmlns="http://www.w3.org/2000/svg" xmlns:xlink="http://www.w3.org/1999/xlink" x="0px" y="0px"
	 viewBox="0 0 111 64" style="enable-background:new 0 0 111 64;" xml:space="preserve">
<style type="text/css">
	.st0{fill:#99B427;}
	.st1{fill:#DCF47A;}
	.st2{fill:#BCD941;}
</style>
<g>
	<g id="Govt_Bonds_prod_page_1">
		<g id="Group_2112" transform="translate(0 1.042)">
			<path id="Path_1226" class="st0" d="M23.2,16.4c0,36.1,21.8,40,21.8,40V6c0,0-4.5,7.8-10,10.5S23.2,16.4,23.2,16.4z"/>
			<path id="Path_1227" class="st0" d="M66.4,16.4c0,35.9-21.6,39.9-21.6,39.9V6c0,0,4.5,7.8,10,10.5S66.4,16.4,66.4,16.4z"/>
			<path id="Path_1226-2" class="st1" d="M27.5,20.3C27.5,48.5,45,51.6,45,51.6V12c0,0-3.6,6.2-8,8.3C33.9,21.3,30.6,21.3,27.5,20.3
				z"/>
			<path id="Path_1227-2" class="st2" d="M62.4,20.3c0,28.2-17.7,31.3-17.7,31.3V12c0,0,3.6,6.2,8,8.3
				C55.9,21.3,59.3,21.3,62.4,20.3z"/>
			<path id="Path_1368" class="st0" d="M106.5,49.7H69.8c-1.1,0-2-0.9-2-2s0.9-2,2-2h36.7c1.1,0,2,0.9,2,2S107.6,49.7,106.5,49.7z"
				/>
			<path id="Path_1369" class="st0" d="M95.7,37.2H79.8c-1.1,0-2-0.9-2-2s0.9-2,2-2h15.9c1.1,0,2,0.9,2,2S96.8,37.2,95.7,37.2z"/>
			<path id="Path_1370" class="st0" d="M17.3,47.2H8.4c-1.1,0-2-0.9-2-2s0.9-2,2-2h8.9c1.1,0,2,0.9,2,2S18.4,47.2,17.3,47.2z"/>
		</g>
	</g>
</g>
</svg>
