<?xml version="1.0" encoding="utf-8"?>
<!-- Generator: Adobe Illustrator 25.4.1, SVG Export Plug-In . SVG Version: 6.00 Build 0)  -->
<svg version="1.1" id="Layer_1" xmlns="http://www.w3.org/2000/svg" xmlns:xlink="http://www.w3.org/1999/xlink" x="0px" y="0px"
	 viewBox="0 0 111 64" style="enable-background:new 0 0 111 64;" xml:space="preserve">
<style type="text/css">
	.st0{fill:#EDEDED;}
	.st1{fill:#B1B1B1;}
	.st2{fill:#FFCECE;}
	.st3{fill:#E03939;}
</style>
<g>
	<g id="Govt_Bonds_prod_page_3">
		<g id="Group_2114">
			<path id="Path_1154" class="st0" d="M28.6,58.4l4.3-2.2l4.5,2.2l4.1-2.2l4.4,2.2l4.6-2.2l4.3,2.2l3.9-2.2l5.3,2.2V8.1l-5.3,2.2
				l-3.9-2.2l-4.3,2.2L46,8.1l-4.4,2.2l-4.1-2.2L33,10.3l-4.3-2.2V58.4z"/>
			<path id="Path_1154_-_Outline" class="st1" d="M46.1,53.9l4.7-2.2l4.1,2.1l3.7-2.1l1.5,0.6V14.1l-1.5,0.6l-3.7-2.1l-4.1,2.1
				l-4.7-2.2l-4.6,2.2l-4.1-2.2l-4.5,2.1l-0.3-0.1v37.3l0.3-0.1l4.5,2.1l4.1-2.2L46.1,53.9 M64.1,58.4l-5.3-2.2l-3.9,2.2l-4.3-2.2
				L46,58.4l-4.4-2.2l-4.1,2.2L33,56.2l-4.3,2.2V8.1l4.3,2.2l4.5-2.2l4.1,2.2L46,8.1l4.6,2.2l4.3-2.2l3.9,2.2l5.3-2.2V58.4z"/>
			<ellipse id="Ellipse_395" class="st2" cx="28.6" cy="32.9" rx="11.7" ry="11.7"/>
			<path id="Ellipse_395_-_Outline" class="st3" d="M28.6,25.1c-4.3,0-7.7,3.5-7.7,7.7s3.5,7.7,7.7,7.7s7.7-3.5,7.7-7.7
				C36.4,28.6,32.9,25.2,28.6,25.1 M28.6,21.1c6.5,0,11.7,5.3,11.7,11.7s-5.3,11.7-11.7,11.7s-11.7-5.3-11.7-11.7c0,0,0,0,0,0
				C16.9,26.4,22.1,21.1,28.6,21.1z"/>
			<path id="Path_1155" class="st3" d="M21.5,41.7L19,38.5l17-13.3l2.5,3.2L21.5,41.7z"/>
			<path id="Path_1374" class="st1" d="M92.5,49.8H75.9c-1.1,0-2-0.9-2-2s0.9-2,2-2h16.6c1.1,0,2,0.9,2,2S93.6,49.8,92.5,49.8z"/>
			<path id="Path_1375" class="st1" d="M103.8,36.2h-28c-1.1,0-2-0.9-2-2s0.9-2,2-2h28c1.1,0,2,0.9,2,2S104.9,36.2,103.8,36.2z"/>
			<path id="Path_1376" class="st1" d="M12.9,18.1H7c-1.1,0-2-0.9-2-2s0.9-2,2-2h5.9c1.1,0,2,0.9,2,2S14,18.1,12.9,18.1z"/>
		</g>
	</g>
</g>
</svg>
