<?xml version="1.0" encoding="utf-8"?>
<!-- Generator: Adobe Illustrator 25.4.1, SVG Export Plug-In . SVG Version: 6.00 Build 0)  -->
<svg version="1.1" id="Layer_1" xmlns="http://www.w3.org/2000/svg" xmlns:xlink="http://www.w3.org/1999/xlink" x="0px" y="0px"
	 viewBox="0 0 350 300" style="enable-background:new 0 0 350 300;" xml:space="preserve">
<style type="text/css">
	.st0{fill:#DDE9FF;}
	.st1{fill:#AFCBFF;}
	.st2{fill:#72A4FF;}
	.st3{fill:#0054C6;}
</style>
<g>
	<g id="MF_hero">
		<g id="Group_2106" transform="translate(-6.168 -4.463)">
			<path id="Rectangle_436" class="st0" d="M129.5,83.1h198.9c6.8,0,12.4,3.4,12.4,7.6v151.7c0,4.2-5.6,7.6-12.4,7.6H129.5
				c-6.8,0-12.4-3.4-12.4-7.6V90.7C117.1,86.5,122.7,83.1,129.5,83.1z"/>
			<path id="Rectangle_436-2" class="st1" d="M208.5,62.2h78.6c2.7,0,4.9,0.9,4.9,1.9v38c0,1-2.2,1.9-4.9,1.9h-78.6
				c-2.7,0-4.9-0.9-4.9-1.9v-38C203.6,63.1,205.8,62.2,208.5,62.2z"/>
			<path id="Rectangle_436-3" class="st2" d="M114.7,62.2h-39c-1.3,0-2.4-0.8-2.4-1.7V27.1c0-0.9,1.1-1.7,2.4-1.7h39
				c1.3,0,2.4,0.8,2.4,1.7v33.4C117.1,61.5,116,62.2,114.7,62.2z"/>
			<path id="Rectangle_436-4" class="st3" d="M42.3,259.4H22.4c-0.7,0-1.2-0.4-1.2-0.9v-17.1c0-0.5,0.6-0.9,1.2-0.9h19.9
				c0.7,0,1.2,0.4,1.2,0.9v17.1C43.6,259,43,259.4,42.3,259.4z"/>
			<path id="Path_1261" class="st3" d="M286.9,208.6h-96.7c-2.9,0-5.2-2.3-5.2-5.2c0-2.9,2.3-5.2,5.2-5.2c0,0,0,0,0,0h96.7
				c2.9,0,5.2,2.3,5.2,5.2S289.7,208.6,286.9,208.6C286.9,208.6,286.9,208.6,286.9,208.6L286.9,208.6z"/>
			<path id="Path_1262" class="st3" d="M224.7,177.5h-34.5c-2.9,0-5.2-2.3-5.2-5.2c0-2.9,2.3-5.2,5.2-5.2c0,0,0,0,0,0h34.5
				c2.9,0,5.2,2.3,5.2,5.2S227.6,177.5,224.7,177.5C224.7,177.5,224.7,177.5,224.7,177.5z"/>
			<g id="Group_1932" transform="translate(247.832 273)">
				<path id="Path_1262-2" class="st3" d="M5.2,10.4h34.5c2.9,0,5.2-2.3,5.2-5.2S42.6,0,39.7,0c0,0,0,0,0,0H5.2C2.3,0,0,2.3,0,5.2
					C0,8,2.3,10.4,5.2,10.4C5.2,10.4,5.2,10.4,5.2,10.4z"/>
				<path id="Path_1262-3" class="st3" d="M58.7,10.4h8.5c2.9,0,5.2-2.3,5.2-5.2S70.1,0,67.2,0c0,0,0,0,0,0h-8.5
					c-2.9,0-5.2,2.3-5.2,5.2S55.8,10.4,58.7,10.4C58.7,10.4,58.7,10.4,58.7,10.4L58.7,10.4z"/>
			</g>
			<g id="Group_1897" transform="translate(56.755 118.583)">
				<path id="Path_1180" class="st1" d="M14.6,23.2h77.7c5.4,0,9.7,4.4,9.7,9.7v48.6c0,5.4-4.4,9.7-9.7,9.7H14.6
					c-5.4,0-9.7-4.4-9.7-9.7V32.9C4.9,27.6,9.2,23.2,14.6,23.2z"/>
				<path id="Path_1181" class="st2" d="M37.5,3.3h30.6c2.1,0,3.8,1.7,3.8,3.8v19.1c0,2.1-1.7,3.8-3.8,3.8H37.5
					c-2.1,0-3.8-1.7-3.8-3.8V7.1C33.6,5,35.3,3.3,37.5,3.3z"/>
				<g id="Group_1929" transform="translate(0)">
					<g id="Group_1925" transform="translate(0 19.425)">
						<path id="Path_1178" class="st3" d="M92.3,77.7H14.6C6.7,77.8,0.1,71.6,0,63.7c0-0.2,0-0.3,0-0.5V14.6C-0.1,6.7,6.1,0.1,14,0
							c0.2,0,0.3,0,0.5,0h77.7c7.9-0.1,14.4,6.1,14.6,14c0,0.2,0,0.3,0,0.5v48.6C106.8,71.2,100.3,77.7,92.3,77.7z M14.6,9.7
							C12,9.6,9.9,11.5,9.7,14c0,0.2,0,0.4,0,0.6v48.6c-0.2,2.5,1.8,4.7,4.3,4.9c0.2,0,0.4,0,0.6,0h77.7c2.5,0.2,4.7-1.8,4.9-4.3
							c0-0.2,0-0.4,0-0.6V14.6c0.2-2.5-1.8-4.7-4.3-4.9c-0.2,0-0.4,0-0.6,0L14.6,9.7z"/>
					</g>
					<g id="Group_1926" transform="translate(29.137)">
						<path id="Path_1179" class="st3" d="M43.7,97.1c-2.5,0.2-4.7-1.8-4.9-4.3c0-0.2,0-0.4,0-0.6V14.6c0.2-2.5-1.8-4.7-4.3-4.9
							c-0.2,0-0.4,0-0.6,0H14.6C12,9.6,9.9,11.5,9.7,14c0,0.2,0,0.4,0,0.6v77.7c0.2,2.5-1.8,4.7-4.3,4.9c-0.2,0-0.4,0-0.6,0
							c-2.5,0.2-4.7-1.8-4.9-4.3c0-0.2,0-0.4,0-0.6V14.6C-0.1,6.7,6.1,0.1,14,0c0.2,0,0.3,0,0.5,0H34c7.9-0.1,14.4,6.1,14.6,14
							c0,0.2,0,0.4,0,0.5v77.7C48.6,94.9,46.4,97.1,43.7,97.1z"/>
					</g>
				</g>
			</g>
		</g>
	</g>
</g>
</svg>
