<?xml version="1.0" encoding="utf-8"?>
<!-- Generator: Adobe Illustrator 25.4.1, SVG Export Plug-In . SVG Version: 6.00 Build 0)  -->
<svg version="1.1" id="Layer_1" xmlns="http://www.w3.org/2000/svg" xmlns:xlink="http://www.w3.org/1999/xlink" x="0px" y="0px"
	 viewBox="0 0 350 300" style="enable-background:new 0 0 350 300;" xml:space="preserve">
<style type="text/css">
	.st0{fill:#FFE7B1;}
	.st1{fill:#FFF6E2;}
	.st2{fill:#FFDB88;}
	.st3{fill:#FDD13C;}
	.st4{fill:#EDB909;}
	.st5{fill:#F5B319;}
	.st6{fill:#222222;}
</style>
<g>
	<g id="SGB_hero">
		<g id="Group_2103" transform="translate(-2.643)">
			<path id="Rectangle_329" class="st0" d="M97.7,70.8h200.7c16.8,0,30.3,13.6,30.3,30.3l0,0c0,16.8-13.6,30.3-30.3,30.3H97.7
				c-16.8,0-30.3-13.6-30.3-30.3l0,0C67.3,84.4,80.9,70.8,97.7,70.8z"/>
			<path id="Rectangle_342" class="st1" d="M177.5,229.7h125.9c9.4,0,17,7.6,17,17v2.2c0,9.4-7.6,17-17,17H177.5
				c-9.4,0-17-7.6-17-17v-2.2C160.5,237.3,168.1,229.7,177.5,229.7z"/>
			<ellipse id="Ellipse_167" class="st2" cx="169.2" cy="99.1" rx="53.3" ry="53.3"/>
			<ellipse id="Ellipse_167-2" class="st3" cx="259.2" cy="238.9" rx="26.9" ry="26.9"/>
			<path id="Ellipse_167_-_Outline" class="st4" d="M169.2,53.8C144.8,53.8,125,73.6,125,98s19.8,44.2,44.2,44.2
				s44.2-19.8,44.2-44.2C213,73.5,193.3,53.8,169.2,53.8 M169.2,39.1c32.6,0,59,26.4,59,59s-26.4,59-59,59s-59-26.4-59-59
				C110.4,65.5,136.7,39.2,169.2,39.1z"/>
			<path id="Ellipse_167_-_Outline-2" class="st5" d="M259.2,215c-12.9,0-23.4,10.5-23.4,23.4c0,12.9,10.5,23.4,23.4,23.4
				s23.4-10.5,23.4-23.4l0,0C282.4,225.5,272,215.1,259.2,215 M259.2,207.2c17.2,0,31.1,13.9,31.1,31.1s-13.9,31.1-31.1,31.1
				c-17.2,0-31.1-13.9-31.1-31.1C228.1,221.2,242,207.2,259.2,207.2z"/>
			<ellipse id="Ellipse_273" class="st4" cx="240.5" cy="27.9" rx="12.3" ry="12.3"/>
			<ellipse id="Ellipse_274" class="st6" cx="217.3" cy="174.5" rx="5.3" ry="5.3"/>
			<ellipse id="Ellipse_274-2" class="st6" cx="302.5" cy="265.9" rx="7.4" ry="7.4"/>
			<path id="Path_1327" class="st4" d="M128.1,207.2H31.4c-2.6,0-4.7-2.1-4.7-4.7c0-2.6,2.1-4.7,4.7-4.7c0,0,0,0,0,0h96.7
				c2.6,0,4.7,2.1,4.7,4.7C132.9,205.1,130.8,207.2,128.1,207.2C128.1,207.2,128.1,207.2,128.1,207.2L128.1,207.2z"/>
			<path id="Path_1327-2" class="st4" d="M309.4,178.7h-72.7c-2.6,0-4.7-2.1-4.7-4.7s2.1-4.7,4.7-4.7c0,0,0,0,0,0h72.7
				c2.6,0,4.7,2.1,4.7,4.7C314.2,176.6,312.1,178.7,309.4,178.7C309.4,178.7,309.4,178.7,309.4,178.7L309.4,178.7z"/>
			<path id="Path_1328" class="st6" d="M167.8,178.7H106c-2.6,0-4.7-2.1-4.7-4.7c0-2.6,2.1-4.7,4.7-4.7h61.8
				c2.6,0.1,4.7,2.2,4.7,4.7c0,2.6-2,4.7-4.6,4.7C167.9,178.7,167.9,178.7,167.8,178.7L167.8,178.7z"/>
		</g>
	</g>
</g>
</svg>
