<?xml version="1.0" encoding="utf-8"?>
<!-- Generator: Adobe Illustrator 25.4.1, SVG Export Plug-In . SVG Version: 6.00 Build 0)  -->
<svg version="1.1" id="Layer_1" xmlns="http://www.w3.org/2000/svg" xmlns:xlink="http://www.w3.org/1999/xlink" x="0px" y="0px"
	 viewBox="0 0 350 300" style="enable-background:new 0 0 350 300;" xml:space="preserve">
<style type="text/css">
	.st0{fill:#AEE0DE;}
	.st1{fill:#60CEC9;}
	.st2{fill:#3C8683;}
	.st3{fill:#275553;}
</style>
<g>
	<g id="GSec_hero">
		<g id="Group_2105" transform="translate(-2 1)">
			<path id="Rectangle_329" class="st0" d="M94.5,104h215c17.9,0,32.5,14.6,32.5,32.5l0,0c0,17.9-14.6,32.5-32.5,32.5h-215
				C76.6,169,62,154.4,62,136.5l0,0C62,118.6,76.6,104,94.5,104z"/>
			<path id="Rectangle_330" class="st0" d="M25,206h116c6.6,0,12,5.4,12,12l0,0c0,6.6-5.4,12-12,12H25c-6.6,0-12-5.4-12-12l0,0
				C13,211.4,18.4,206,25,206z"/>
			<path id="Rectangle_331" class="st1" d="M139,259h45c6.6,0,12,5.4,12,12l0,0c0,6.6-5.4,12-12,12h-45c-6.6,0-12-5.4-12-12l0,0
				C127,264.4,132.4,259,139,259z"/>
			<path id="Rectangle_332" class="st2" d="M214,16h25c6.6,0,12,5.4,12,12l0,0c0,6.6-5.4,12-12,12h-25c-6.6,0-12-5.4-12-12l0,0
				C202,21.4,207.4,16,214,16z"/>
			<g id="GOI_Dated_Bonds" transform="translate(38.086 64.719)">
				<path id="Path_1226" class="st3" d="M0,24c0,82.8,50,91.9,50,91.9V0c0,0-10.3,17.9-22.9,24S0,24,0,24z"/>
				<path id="Path_1227" class="st3" d="M99.2,24c0,82.4-49.6,91.5-49.6,91.5V0c0,0,10.3,17.9,22.9,24S99.2,24,99.2,24z"/>
				<path id="Path_1226-2" class="st1" d="M11.4,33.9c0,62.2,38.5,69,38.5,69V15.6c0,0-8,13.7-17.5,18.3
					C25.6,36.2,18.2,36.2,11.4,33.9z"/>
				<path id="Path_1227-2" class="st2" d="M88.5,33.9c0,62.2-38.9,69-38.9,69V15.6c0,0,8,13.7,17.5,18.3
					C74.1,36.2,81.5,36.2,88.5,33.9z"/>
				<path id="Path_1261" class="st3" d="M212.5,120.6H105.7c-3.2,0-5.8-2.5-5.8-5.6c0-3.2,2.5-5.8,5.6-5.8c0.1,0,0.1,0,0.2,0h106.8
					c3.2,0,5.8,2.5,5.8,5.6c0,3.2-2.5,5.8-5.6,5.8C212.6,120.6,212.5,120.6,212.5,120.6z"/>
				<path id="Path_1262" class="st3" d="M161.8,90.5h-38.1c-3.2,0-5.7-2.6-5.6-5.8c0-3.1,2.5-5.6,5.6-5.6h38.1
					c3.2,0,5.8,2.5,5.8,5.6c0,3.2-2.5,5.8-5.6,5.8C161.9,90.5,161.8,90.5,161.8,90.5z"/>
			</g>
		</g>
	</g>
</g>
</svg>
