<?xml version="1.0" encoding="utf-8"?>
<!-- Generator: Adobe Illustrator 25.4.1, SVG Export Plug-In . SVG Version: 6.00 Build 0)  -->
<svg version="1.1" id="Layer_1" xmlns="http://www.w3.org/2000/svg" xmlns:xlink="http://www.w3.org/1999/xlink" x="0px" y="0px"
	 viewBox="0 0 350 300" style="enable-background:new 0 0 350 300;" xml:space="preserve">
<style type="text/css">
	.st0{fill:#EFF1FF;}
	.st1{fill:#E0E4FD;}
	.st2{fill:#7C8CFF;}
	.st3{fill:#1F2EA2;}
	.st4{fill:#D5DAFD;}
</style>
<g>
	<g id="CBonds_hero">
		<g id="Group_2104" transform="translate(-3.966 7)">
			<circle id="Ellipse_421" class="st0" cx="180" cy="122" r="100"/>
			<ellipse id="Ellipse_422" class="st1" cx="232.5" cy="253.3" rx="22.5" ry="22"/>
			<ellipse id="Ellipse_444" class="st1" cx="73.8" cy="188.5" rx="54.9" ry="53.6"/>
			<circle id="Ellipse_423" class="st2" cx="235.5" cy="31.5" r="15.5"/>
			<circle id="Ellipse_424" class="st3" cx="25" cy="197" r="6"/>
			<ellipse id="Ellipse_425" class="st3" cx="213.5" cy="13" rx="3.5" ry="3"/>
			<g id="Group_1881" transform="translate(56.648 77.199)">
				<path id="Path_1249" class="st3" d="M63.9,63.5H30l-10.3,62.3L45,110l29.6,15.8L63.9,63.5z"/>
				<ellipse id="Ellipse_156" class="st2" cx="47.3" cy="47.3" rx="35.5" ry="35.5"/>
				<path id="Ellipse_156_-_Outline" class="st3" d="M47.3,11.8c-19.6,0-35.5,15.9-35.5,35.5s15.9,35.5,35.5,35.5
					c19.6,0,35.5-15.9,35.5-35.5c0.1-19.5-15.7-35.4-35.2-35.5C47.5,11.8,47.4,11.8,47.3,11.8 M47.3,0c26.1,0,47.3,21.2,47.3,47.3
					S73.5,94.6,47.3,94.6S0,73.5,0,47.3C0.1,21.2,21.2,0.1,47.3,0z"/>
			</g>
			<path id="Path_1258" class="st3" d="M214.9,168.8H167c-3.1,0-5.6-2.5-5.6-5.6s2.5-5.6,5.6-5.6h47.8c3.1,0,5.6,2.5,5.6,5.6
				S218,168.8,214.9,168.8z"/>
			<path id="Path_1258-2" class="st3" d="M242.6,168.8h-9.8c-3.1,0-5.6-2.5-5.6-5.6s2.5-5.6,5.6-5.6h9.8c3.1,0,5.6,2.5,5.6,5.6
				S245.7,168.8,242.6,168.8z"/>
			<path id="Path_1259" class="st4" d="M332.5,134.8H180.6c-3.1,0-5.6-2.5-5.6-5.6c0-3.1,2.5-5.6,5.6-5.6c0,0,0,0,0,0h151.9
				c3.1,0,5.6,2.5,5.6,5.6C338.1,132.3,335.6,134.8,332.5,134.8z"/>
			<path id="Path_1259-2" class="st2" d="M295.8,264.5h-25.9c-3.1,0-5.6-2.5-5.6-5.6s2.5-5.6,5.6-5.6c0,0,0,0,0,0h25.9
				c3.1,0,5.6,2.5,5.6,5.6C301.4,262,298.9,264.5,295.8,264.5C295.8,264.5,295.8,264.5,295.8,264.5z"/>
			<path id="Path_1259-3" class="st2" d="M252.8,264.5h-4.7c-3.1,0-5.6-2.5-5.6-5.6c0-3.1,2.5-5.6,5.6-5.6c0,0,0,0,0,0h4.7
				c3.1,0,5.6,2.5,5.6,5.6C258.4,262,255.9,264.5,252.8,264.5z"/>
		</g>
	</g>
</g>
</svg>
