<?xml version="1.0" encoding="utf-8"?>
<!-- Generator: Adobe Illustrator 25.4.1, SVG Export Plug-In . SVG Version: 6.00 Build 0)  -->
<svg version="1.1" id="Layer_1" xmlns="http://www.w3.org/2000/svg" xmlns:xlink="http://www.w3.org/1999/xlink" x="0px" y="0px"
	 viewBox="0 0 120 96" style="enable-background:new 0 0 120 96;" xml:space="preserve">
<style type="text/css">
	.st0{fill:#C6CCFF;}
	.st1{fill:#1F2EA2;}
	.st2{fill:#7C8CFF;}
</style>
<g>
	<g id="Corporate_Bonds_-_main_landing">
		<g id="Group_2109" transform="translate(-11.001)">
			<path id="Rectangle_436" class="st0" d="M42.7,7h59.5c2,0,3.7,1.7,3.7,3.7V85c0,2-1.7,3.7-3.7,3.7H42.7c-2,0-3.7-1.7-3.7-3.7
				V10.7C39,8.7,40.7,7,42.7,7z"/>
			<path id="Path_1249" class="st1" d="M46.9,49H32.1l-4.5,27.2l11-6.9l12.9,6.9L46.9,49z"/>
			<ellipse id="Ellipse_156" class="st2" cx="39.6" cy="42" rx="15.5" ry="15.5"/>
			<path id="Ellipse_156_-_Outline" class="st1" d="M39.6,26.5c-8.5,0-15.5,6.9-15.5,15.5s6.9,15.5,15.5,15.5S55.1,50.5,55.1,42
				c0,0,0,0,0,0c0-8.5-6.8-15.4-15.3-15.5C39.7,26.5,39.7,26.5,39.6,26.5 M39.6,21.4c11.4,0,20.6,9.2,20.6,20.6S51,62.6,39.6,62.6
				C28.2,62.6,19,53.4,19,42C19,30.6,28.3,21.4,39.6,21.4z"/>
			<path id="Path_1261" class="st1" d="M120.1,69.8h-52c-1.5,0-2.8-1.2-2.8-2.8c0-1.5,1.2-2.8,2.8-2.8h52c1.5,0,2.8,1.2,2.8,2.8
				C122.9,68.6,121.7,69.8,120.1,69.8z"/>
			<path id="Path_1262" class="st1" d="M91.8,53.1H73.2c-1.5,0-2.8-1.2-2.8-2.8c0-1.5,1.2-2.8,2.8-2.8h18.6c1.5,0,2.8,1.2,2.8,2.8
				C94.6,51.8,93.4,53.1,91.8,53.1z"/>
		</g>
	</g>
</g>
</svg>
