<?xml version="1.0" encoding="utf-8"?>
<!-- Generator: Adobe Illustrator 25.4.1, SVG Export Plug-In . SVG Version: 6.00 Build 0)  -->
<svg version="1.1" id="Layer_1" xmlns="http://www.w3.org/2000/svg" xmlns:xlink="http://www.w3.org/1999/xlink" x="0px" y="0px"
	 viewBox="0 0 120 96" style="enable-background:new 0 0 120 96;" xml:space="preserve">
<style type="text/css">
	.st0{fill:#DDE9FF;}
	.st1{fill:#0054C6;}
	.st2{fill:#AFCBFF;}
	.st3{fill:#72A4FF;}
</style>
<g>
	<g id="MF_-_main_landing">
		<g id="Group_2107" transform="translate(-7)">
			<path id="Rectangle_436" class="st0" d="M42.7,7h59.5c2,0,3.7,1.7,3.7,3.7V85c0,2-1.7,3.7-3.7,3.7H42.7c-2,0-3.7-1.7-3.7-3.7
				V10.7C39,8.7,40.7,7,42.7,7z"/>
			<path id="Path_1261" class="st1" d="M118.8,68.8h-42c-1.5,0-2.8-1.2-2.8-2.8c0-1.5,1.2-2.8,2.8-2.8h42c1.5,0,2.8,1.2,2.8,2.8
				C121.6,67.6,120.3,68.8,118.8,68.8z"/>
			<path id="Path_1262" class="st1" d="M95.4,52.1H81.8c-1.5,0-2.8-1.2-2.8-2.8c0-1.5,1.2-2.8,2.8-2.8h13.6c1.5,0,2.8,1.2,2.8,2.8
				C98.2,50.8,96.9,52.1,95.4,52.1L95.4,52.1z"/>
			<g id="Group_1897" transform="translate(-13448.48 10628.935)">
				<path id="Path_1180" class="st2" d="M13469.8-10588.4h35.5c2.4,0,4.4,2,4.4,4.4v22.2c0,2.4-2,4.4-4.4,4.4h-35.5
					c-2.4,0-4.4-2-4.4-4.4v-22.2C13465.3-10586.4,13467.3-10588.4,13469.8-10588.4z"/>
				<path id="Path_1181" class="st3" d="M13480.2-10597.5h14c1,0,1.7,0.8,1.7,1.7v8.7c0,1-0.8,1.7-1.7,1.7h-14c-1,0-1.7-0.8-1.7-1.7
					v-8.7C13478.5-10596.7,13479.2-10597.5,13480.2-10597.5z"/>
				<g id="Group_1929" transform="translate(13463.106 -10599)">
					<g id="Group_1925" transform="translate(0 8.863)">
						<path id="Path_1178" class="st1" d="M42.1,35.5H6.6C3,35.5,0.1,32.6,0,29c0-0.1,0-0.2,0-0.2V6.6C-0.1,3,2.8,0.1,6.4,0
							c0.1,0,0.2,0,0.2,0h35.5c3.6-0.1,6.6,2.8,6.6,6.4c0,0.1,0,0.2,0,0.2v22.2C48.7,32.5,45.8,35.4,42.1,35.5z M6.6,4.4
							c-1.2-0.1-2.1,0.8-2.2,2c0,0.1,0,0.2,0,0.3v22.2c-0.1,1.2,0.8,2.1,2,2.2c0.1,0,0.2,0,0.3,0h35.5c1.2,0.1,2.1-0.8,2.2-2
							c0-0.1,0-0.2,0-0.3V6.6c0.1-1.2-0.8-2.1-2-2.2c-0.1,0-0.2,0-0.3,0L6.6,4.4z"/>
					</g>
					<g id="Group_1926" transform="translate(13.294)">
						<path id="Path_1179" class="st1" d="M19.9,44.3c-1.2,0.1-2.1-0.8-2.2-2c0-0.1,0-0.2,0-0.3V6.6c0.1-1.2-0.8-2.1-2-2.2
							c-0.1,0-0.2,0-0.3,0H6.6c-1.2-0.1-2.1,0.8-2.2,2c0,0.1,0,0.2,0,0.3v35.5c0.1,1.2-0.8,2.1-2,2.2c-0.1,0-0.2,0-0.3,0
							c-1.2,0.1-2.1-0.8-2.2-2c0-0.1,0-0.2,0-0.3V6.6C-0.1,3,2.8,0.1,6.4,0c0.1,0,0.2,0,0.2,0h8.9c3.6-0.1,6.6,2.8,6.6,6.4
							c0,0.1,0,0.2,0,0.2v35.5C22.2,43.3,21.2,44.3,19.9,44.3z"/>
					</g>
				</g>
			</g>
		</g>
	</g>
</g>
</svg>
