<?xml version="1.0" encoding="utf-8"?>
<!-- Generator: Adobe Illustrator 25.4.1, SVG Export Plug-In . SVG Version: 6.00 Build 0)  -->
<svg version="1.1" id="Layer_1" xmlns="http://www.w3.org/2000/svg" xmlns:xlink="http://www.w3.org/1999/xlink" x="0px" y="0px"
	 viewBox="0 0 120 96" style="enable-background:new 0 0 120 96;" xml:space="preserve">
<style type="text/css">
	.st0{fill:#FFEBBF;}
	.st1{fill:#FFDB88;}
	.st2{fill:#EDB909;}
</style>
<g>
	<g id="Gold_bonds_-_main_landing">
		<g id="Group_2110" transform="translate(-11.275)">
			<path id="Rectangle_436" class="st0" d="M42.7,7h59.5c2,0,3.7,1.7,3.7,3.7V85c0,2-1.7,3.7-3.7,3.7H42.7c-2,0-3.7-1.7-3.7-3.7
				V10.7C39,8.7,40.7,7,42.7,7z"/>
			<ellipse id="Ellipse_167" class="st1" cx="39" cy="44" rx="19.7" ry="19.7"/>
			<path id="Ellipse_167_-_Outline" class="st2" d="M39.1,29.3c-8.1,0-14.7,6.6-14.7,14.7S31,58.6,39.1,58.6S53.8,52.1,53.8,44
				c0,0,0,0,0,0C53.7,35.9,47.2,29.4,39.1,29.3 M39.2,24.4c10.8,0,19.6,8.8,19.6,19.6c0,10.8-8.8,19.6-19.6,19.6
				c-10.8,0-19.6-8.8-19.6-19.6c0,0,0,0,0,0C19.6,33.2,28.4,24.4,39.2,24.4z"/>
			<ellipse id="Ellipse_273" class="st2" cx="23.7" cy="20.2" rx="4.1" ry="4.1"/>
			<ellipse id="Ellipse_274" class="st2" cx="28.6" cy="67.5" rx="2.4" ry="2.4"/>
			<path id="Path_1261" class="st2" d="M120.1,68.8h-52c-1.5,0-2.8-1.2-2.8-2.8c0-1.5,1.2-2.8,2.8-2.8h52c1.5,0,2.8,1.2,2.8,2.8
				C122.9,67.6,121.7,68.8,120.1,68.8z"/>
			<path id="Path_1262" class="st2" d="M95.8,52.1H77.2c-1.5,0-2.8-1.2-2.8-2.8c0-1.5,1.2-2.8,2.8-2.8h18.6c1.5,0,2.8,1.2,2.8,2.8
				C98.6,50.8,97.4,52.1,95.8,52.1z"/>
		</g>
	</g>
</g>
</svg>
