<?xml version="1.0" encoding="utf-8"?>
<!-- Generator: Adobe Illustrator 25.4.1, SVG Export Plug-In . SVG Version: 6.00 Build 0)  -->
<svg version="1.1" id="Layer_1" xmlns="http://www.w3.org/2000/svg" xmlns:xlink="http://www.w3.org/1999/xlink" x="0px" y="0px"
	 viewBox="0 0 120 96" style="enable-background:new 0 0 120 96;" xml:space="preserve">
<style type="text/css">
	.st0{fill:#AEE0DE;}
	.st1{fill:#275553;}
	.st2{fill:#60CEC9;}
	.st3{fill:#3C8683;}
</style>
<g>
	<g id="Govt_Bonds_-_main_landing">
		<g id="Group_2108" transform="translate(-10.001)">
			<path id="Rectangle_436" class="st0" d="M42.7,7h59.5c2,0,3.7,1.7,3.7,3.7V85c0,2-1.7,3.7-3.7,3.7H42.7c-2,0-3.7-1.7-3.7-3.7
				V10.7C39,8.7,40.7,7,42.7,7z"/>
			<path id="Path_1226" class="st1" d="M17,32.4c0,40.3,24.3,44.8,24.3,44.8V20.7c0,0-5,8.7-11.1,11.7S17,32.4,17,32.4z"/>
			<path id="Path_1227" class="st1" d="M65.3,32.4C65.3,72.6,41.2,77,41.2,77V20.7c0,0,5,8.7,11.1,11.7S65.3,32.4,65.3,32.4z"/>
			<path id="Path_1226-2" class="st2" d="M22.6,37.3c0,30.3,18.8,33.6,18.8,33.6V28.4c0,0-3.9,6.7-8.5,8.9
				C29.5,38.4,25.9,38.4,22.6,37.3z"/>
			<path id="Path_1227-2" class="st3" d="M60.1,37.3c0,30.3-19,33.6-19,33.6V28.4c0,0,3.9,6.7,8.5,8.9
				C53.1,38.4,56.7,38.4,60.1,37.3z"/>
			<path id="Path_1261" class="st1" d="M120.1,74.8h-52c-1.5,0-2.8-1.2-2.8-2.8c0-1.5,1.2-2.8,2.8-2.8h52c1.5,0,2.8,1.2,2.8,2.8
				C122.9,73.6,121.7,74.8,120.1,74.8z"/>
			<path id="Path_1262" class="st1" d="M97.8,58.1H79.2c-1.5,0-2.8-1.2-2.8-2.8c0-1.5,1.2-2.8,2.8-2.8h18.6c1.5,0,2.8,1.2,2.8,2.8
				C100.6,56.8,99.4,58.1,97.8,58.1z"/>
		</g>
	</g>
</g>
</svg>
