<?xml version="1.0" encoding="utf-8"?>
<!-- Generator: Adobe Illustrator 25.4.1, SVG Export Plug-In . SVG Version: 6.00 Build 0)  -->
<svg version="1.1" id="Layer_1" xmlns="http://www.w3.org/2000/svg" xmlns:xlink="http://www.w3.org/1999/xlink" x="0px" y="0px"
	 viewBox="0 0 111 64" style="enable-background:new 0 0 111 64;" xml:space="preserve">
<style type="text/css">
	.st0{fill:#E5891D;}
	.st1{fill:#C8DAF0;}
	.st2{fill:#235DDD;}
	.st3{fill:#FAD7AD;}
</style>
<g>
	<g id="MF_prod_page_3">
		<g id="Group_2119">
			<path id="Path_1132" class="st0" d="M102,23.4H64.3c-1.1,0-2-0.9-2-2s0.9-2,2-2H102c1.1,0,2,0.9,2,2S103.1,23.4,102,23.4z"/>
			<path id="Path_1133" class="st0" d="M68.6,9h-4.3c-1.1,0-2-0.9-2-2s0.9-2,2-2h4.3c1.1,0,2,0.9,2,2S69.7,9,68.6,9z"/>
			<path id="Path_1129" class="st1" d="M73.2,33.6v23.7c13.1,0,23.7-10.6,23.7-23.7H73.2z"/>
			<path id="Path_1129_-_Outline" class="st2" d="M77.2,37.6v15.3c3.8-0.8,7.2-2.6,9.9-5.4c2.7-2.7,4.6-6.2,5.4-9.9H77.2 M73.2,33.6
				h23.7c0,13.1-10.6,23.7-23.7,23.7V33.6z"/>
			<path id="Path_1134" class="st3" d="M55.9,32.4c0-13.8-11.2-24.9-24.9-24.9l0,0C17.2,7.4,6,18.6,6,32.4l0,0
				c0,13.8,11.2,24.9,24.9,24.9l0,0V32.4H55.9z"/>
			<path id="Path_1134_-_Outline" class="st0" d="M30.9,11.4c-5.6,0-10.9,2.2-14.8,6.1c-3.9,3.9-6.1,9.2-6.1,14.8
				c0,5.6,2.2,10.9,6.1,14.8c2.9,3,6.7,5,10.8,5.8V28.4h24.6c-0.8-4.1-2.8-7.9-5.8-10.8C41.8,13.6,36.5,11.4,30.9,11.4 M30.9,7.4
				c13.8,0,24.9,11.2,24.9,24.9c0,0,0,0,0,0H30.9v24.9C17.2,57.3,6,46.1,6,32.4C6,18.6,17.2,7.4,30.9,7.4L30.9,7.4L30.9,7.4z"/>
		</g>
	</g>
</g>
</svg>
