<?xml version="1.0" encoding="utf-8"?>
<!-- Generator: Adobe Illustrator 25.4.1, SVG Export Plug-In . SVG Version: 6.00 Build 0)  -->
<svg version="1.1" id="Layer_1" xmlns="http://www.w3.org/2000/svg" xmlns:xlink="http://www.w3.org/1999/xlink" x="0px" y="0px"
	 viewBox="0 0 111 64" style="enable-background:new 0 0 111 64;" xml:space="preserve">
<style type="text/css">
	.st0{fill:#58CDDB;}
	.st1{fill:#AAE6ED;}
	.st2{fill:#77E3F0;}
	.st3{fill:#D0FAFF;}
	.st4{fill:#9EEFF8;}
	.st5{fill:#60A2B2;}
</style>
<g>
	<g id="MF_prod_page_2">
		<g id="Group_2120">
			<circle id="Ellipse_388" class="st0" cx="44.8" cy="33.8" r="25"/>
			<path id="Path_1120" class="st1" d="M44.8,33.8l20.6-12.6l-17-10.5L44.8,33.8z"/>
			<path id="Path_1123" class="st2" d="M44.7,33.5l0,23.2l13.1-3L44.7,33.5z"/>
			<path id="Path_1122" class="st3" d="M45.1,34.6l4-23.8c-4-0.2-8,0.3-11.9,1.5c-3.8,1.5-7.4,3.6-10.5,6.2L45.1,34.6z"/>
			<path id="Path_1121" class="st4" d="M44.6,33.9l12.1,20.5L67.4,38l-3.2-16.9L44.6,33.9z"/>
			<path id="Ellipse_387" class="st5" d="M44.8,12.8c-11.6,0-21,9.4-21,21c0,5.6,2.2,10.9,6.2,14.8c8.2,8.2,21.5,8.2,29.7,0
				s8.2-21.5,0-29.7l0,0C55.7,15,50.4,12.8,44.8,12.8 M44.8,8.8c13.8,0,25,11.2,25,25s-11.2,25-25,25s-25-11.2-25-25
				S31,8.8,44.8,8.8z"/>
			<path id="Path_1124" class="st5" d="M106,33.4H79.4c-1.1,0-2-0.9-2-2s0.9-2,2-2H106c1.1,0,2,0.9,2,2S107.1,33.4,106,33.4z"/>
			<path id="Path_1125" class="st5" d="M88.3,47.4h-8.8c-1.1,0-2-0.9-2-2s0.9-2,2-2h8.8c1.1,0,2,0.9,2,2S89.4,47.4,88.3,47.4z"/>
			<path id="Path_1126" class="st5" d="M15.3,14.2H5c-1.1,0-2-0.9-2-2s0.9-2,2-2h10.3c1.1,0,2,0.9,2,2S16.4,14.2,15.3,14.2z"/>
		</g>
	</g>
</g>
</svg>
