<?xml version="1.0" encoding="utf-8"?>
<!-- Generator: Adobe Illustrator 25.4.1, SVG Export Plug-In . SVG Version: 6.00 Build 0)  -->
<svg version="1.1" id="Layer_1" xmlns="http://www.w3.org/2000/svg" xmlns:xlink="http://www.w3.org/1999/xlink" x="0px" y="0px"
	 viewBox="0 0 111 64" style="enable-background:new 0 0 111 64;" xml:space="preserve">
<style type="text/css">
	.st0{fill:#FFE3A5;}
	.st1{fill:#FFB50D;}
</style>
<g>
	<g id="MF_prod_page_1">
		<g id="Group_2121">
			<circle id="Ellipse_389" class="st0" cx="30" cy="32" r="25"/>
			<path id="Ellipse_389_-_Outline" class="st1" d="M30,11C18.4,11,9,20.4,9,32c0,5.6,2.2,10.9,6.2,14.8c8.2,8.2,21.5,8.2,29.7,0
				s8.2-21.5,0-29.7l0,0C40.9,13.2,35.6,11,30,11 M30,7c13.8,0,25,11.2,25,25S43.8,57,30,57S5,45.8,5,32S16.2,7,30,7z"/>
			<circle id="Ellipse_390" class="st0" cx="68" cy="50" r="8"/>
			<path id="Ellipse_390_-_Outline" class="st1" d="M68,45c-2.8,0-5,2.2-5,5s2.2,5,5,5s5-2.2,5-5C73,47.2,70.8,45,68,45 M68,42
				c4.4,0,8,3.6,8,8s-3.6,8-8,8s-8-3.6-8-8S63.6,42,68,42z"/>
			<circle id="Ellipse_391" class="st0" cx="88.3" cy="26" r="4"/>
			<path id="Path_1135" class="st1" d="M69.8,28h-6.3c-1.1,0-2-0.9-2-2s0.9-2,2-2h6.3c1.1,0,2,0.9,2,2S70.9,28,69.8,28z"/>
			<path id="Path_1136" class="st1" d="M83.6,42c0-1.1,0.9-2,2-2H106c1.1,0,2,0.9,2,2s-0.9,2-2,2H85.6C84.5,44,83.6,43.1,83.6,42z"
				/>
		</g>
	</g>
</g>
</svg>
