<svg xmlns="http://www.w3.org/2000/svg" width="83.941" height="10.152" viewBox="0 0 83.941 10.152">
  <path id="Path_1213" data-name="Path 1213" d="M101.615,8.468A9.039,9.039,0,0,0,98.778,6h4.368v5.147a11.532,11.532,0,0,0-1.531-2.679Zm-6.3-1.92c4.025,0,7.307,4.291,7.382,9.6H93V7.042a5.729,5.729,0,0,1,2.317-.494Zm13.624,8.035,5.42-6.565h-5.249V6.585h7.348v1.2l-5.419,6.565h5.419v1.433h-7.519Zm9.541-8h6.8V8.044h-5.2v2.363h4.606v1.459h-4.606v2.456h5.262v1.457h-6.863V6.587Zm8.792,0h4.095a4.5,4.5,0,0,1,1.534.244,3.1,3.1,0,0,1,1.116.677,2.654,2.654,0,0,1,.564.88,2.962,2.962,0,0,1,.2,1.1v.027a2.976,2.976,0,0,1-.165,1.017,2.667,2.667,0,0,1-.452.8,2.719,2.719,0,0,1-.688.591,3.408,3.408,0,0,1-.887.373l2.481,3.48h-1.9l-2.264-3.2h-2.027v3.2h-1.6V6.587Zm3.971,4.557a2.132,2.132,0,0,0,1.381-.415A1.374,1.374,0,0,0,133.14,9.6V9.574a1.356,1.356,0,0,0-.5-1.14,2.245,2.245,0,0,0-1.408-.389h-2.358v3.1h2.37Zm9.9,4.793a4.889,4.889,0,0,1-1.942-.375,4.61,4.61,0,0,1-1.509-1.017,4.759,4.759,0,0,1-1.339-3.336v-.026a4.754,4.754,0,0,1,.355-1.832,4.645,4.645,0,0,1,1-1.509,4.763,4.763,0,0,1,1.523-1.031,4.836,4.836,0,0,1,1.94-.381,4.895,4.895,0,0,1,1.944.375,4.614,4.614,0,0,1,1.508,1.017,4.76,4.76,0,0,1,1.339,3.336v.026a4.76,4.76,0,0,1-.354,1.832,4.645,4.645,0,0,1-1,1.509,4.762,4.762,0,0,1-1.523,1.031,4.835,4.835,0,0,1-1.941.381Zm.026-1.484a2.992,2.992,0,0,0,1.248-.256,2.928,2.928,0,0,0,.973-.695,3.209,3.209,0,0,0,.634-1.031,3.471,3.471,0,0,0,.229-1.261v-.026a3.514,3.514,0,0,0-.229-1.267,3.15,3.15,0,0,0-.641-1.038,3.1,3.1,0,0,0-.986-.7,3.092,3.092,0,0,0-3.477.69,3.221,3.221,0,0,0-.633,1.03,3.447,3.447,0,0,0-.229,1.261v.026a3.491,3.491,0,0,0,.229,1.267,3.149,3.149,0,0,0,.64,1.038,3.107,3.107,0,0,0,.987.7,2.985,2.985,0,0,0,1.254.262Zm6.746-7.865h3.425a5.44,5.44,0,0,1,1.974.347,4.66,4.66,0,0,1,1.549.966,4.305,4.305,0,0,1,1,1.451,4.555,4.555,0,0,1,.354,1.8v.027a4.62,4.62,0,0,1-.354,1.812,4.293,4.293,0,0,1-1,1.459,4.749,4.749,0,0,1-1.549.97,5.338,5.338,0,0,1-1.974.355h-3.426V6.587Zm3.411,7.734a3.587,3.587,0,0,0,1.312-.23,2.873,2.873,0,0,0,1-.646,2.942,2.942,0,0,0,.643-.989,3.316,3.316,0,0,0,.23-1.246v-.026a3.373,3.373,0,0,0-.23-1.252,2.913,2.913,0,0,0-.643-1,2.949,2.949,0,0,0-1-.653,3.491,3.491,0,0,0-1.312-.237h-1.813V14.32h1.812Zm6.849-7.734h1.6v3.821h4.408V6.587h1.6v9.191h-1.6V11.9h-4.409v3.874h-1.6V6.587ZM171.4,6.521h1.5l4.041,9.257h-1.706l-.932-2.219H169.96l-.945,2.219h-1.654L171.4,6.521Zm2.31,5.606L172.125,8.45l-1.575,3.677Z" transform="translate(-93 -6)" fill="#c7d5e2" fill-rule="evenodd"/>
</svg>
